<svg width="24" height="24" viewBox="0 0 24 24" fill="none" xmlns="http://www.w3.org/2000/svg">
<path d="M12.7334 13.6364C12.7334 13.3874 12.7334 13.2644 12.7739 13.1654C12.8279 13.0349 12.9314 12.9314 13.0619 12.8774C13.1594 12.8369 13.2839 12.8369 13.5329 12.8369C14.7104 12.8369 15.6659 13.7924 15.6659 14.9699C15.6659 15.1904 15.8444 15.3704 16.0664 15.3704C17.2439 15.3704 18.1994 16.3259 18.1994 17.5034C18.1994 17.7239 18.3779 17.9039 18.5999 17.9039C19.7789 17.9039 20.7329 18.8594 20.7329 20.0369C20.7329 20.2859 20.7329 20.4104 20.6924 20.5079C20.6384 20.6384 20.5349 20.7419 20.4044 20.7959C20.3069 20.8364 20.1824 20.8364 19.9334 20.8364H13.5869C13.2884 20.8364 13.1384 20.8364 13.0244 20.7779C12.9239 20.7269 12.8429 20.6459 12.7919 20.5454C12.7334 20.4314 12.7334 20.2814 12.7334 19.9829V13.6364Z" fill="#FEA98A"/>
<path d="M4.5732 13.4942C4.1157 13.0367 3.8877 12.8087 3.6912 12.7937C3.5217 12.7802 3.3552 12.8492 3.2442 12.9797C3.1167 13.1297 3.1167 13.4522 3.1167 14.0987V19.9847C3.1167 20.2832 3.1167 20.4332 3.1752 20.5472C3.2262 20.6477 3.3072 20.7287 3.4077 20.7797C3.5217 20.8382 3.6717 20.8382 3.9702 20.8382H10.2642C10.5627 20.8382 10.7127 20.8382 10.8267 20.7797C10.9272 20.7287 11.0082 20.6477 11.0592 20.5472C11.1177 20.4332 11.1177 20.2832 11.1177 19.9847V14.0987C11.1177 13.4522 11.1177 13.1297 10.9902 12.9797C10.8792 12.8492 10.7127 12.7817 10.5432 12.7937C10.3467 12.8087 10.1187 13.0382 9.6612 13.4942L7.7217 15.4337C7.5102 15.6452 7.4052 15.7502 7.2837 15.7907C7.1772 15.8252 7.0617 15.8252 6.9537 15.7907C6.8322 15.7517 6.7257 15.6452 6.5157 15.4337L4.5762 13.4942H4.5732Z" fill="#BD90FB"/>
<path d="M16.7341 11.2963C19.0172 11.2963 20.8681 9.44547 20.8681 7.16232C20.8681 4.87918 19.0172 3.02832 16.7341 3.02832C14.451 3.02832 12.6001 4.87918 12.6001 7.16232C12.6001 9.44547 14.451 11.2963 16.7341 11.2963Z" fill="#FBE25F"/>
<path d="M11.1162 4.01707C11.1162 3.71857 11.1162 3.56857 11.0577 3.45457C11.0067 3.35407 10.9257 3.27307 10.8252 3.22207C10.7112 3.16357 10.5612 3.16357 10.2627 3.16357H5.1162C4.0122 3.16357 3.1167 4.05907 3.1167 5.16307C3.1167 6.26707 4.0122 7.16257 5.1162 7.16257H10.2627C10.5612 7.16257 10.7112 7.16257 10.8252 7.10407C10.9257 7.05307 11.0067 6.97207 11.0577 6.87157C11.1162 6.75757 11.1162 6.60757 11.1162 6.30907V4.01557V4.01707Z" fill="#62DAB6"/>
<path d="M3.11523 8.0161C3.11523 7.7176 3.11523 7.5676 3.17373 7.4536C3.22473 7.3531 3.30573 7.2721 3.40623 7.2211C3.52023 7.1626 3.67023 7.1626 3.96873 7.1626H9.11523C10.2192 7.1626 11.1147 8.0581 11.1147 9.1621C11.1147 10.2661 10.2192 11.1616 9.11523 11.1616H3.96873C3.67023 11.1616 3.52023 11.1616 3.40623 11.1031C3.30573 11.0521 3.22473 10.9711 3.17373 10.8706C3.11523 10.7566 3.11523 10.6066 3.11523 10.3081V8.0146V8.0161Z" fill="#62DAB6"/>
</svg>
